<svg width="116" height="29" viewBox="0 0 116 29" fill="none" xmlns="http://www.w3.org/2000/svg">
<path d="M1.656 6.864H5.4L12.552 18.36H12.6V6.864H16.128V24H12.36L5.232 12.528H5.184V24H1.656V6.864ZM20.9091 9.672H17.5011V6.864H20.9091V9.672ZM17.5011 11.592H20.9091V24H17.5011V11.592ZM30.3606 15.96C30.1366 14.536 29.2966 13.824 27.8406 13.824C27.2966 13.824 26.8406 13.952 26.4726 14.208C26.1046 14.448 25.8006 14.768 25.5606 15.168C25.3366 15.552 25.1766 15.984 25.0806 16.464C24.9846 16.928 24.9366 17.392 24.9366 17.856C24.9366 18.304 24.9846 18.76 25.0806 19.224C25.1766 19.688 25.3286 20.112 25.5366 20.496C25.7606 20.864 26.0566 21.168 26.4246 21.408C26.7926 21.648 27.2406 21.768 27.7686 21.768C28.5846 21.768 29.2086 21.544 29.6406 21.096C30.0886 20.632 30.3686 20.016 30.4806 19.248H33.7686C33.5446 20.896 32.9046 22.152 31.8486 23.016C30.7926 23.88 29.4406 24.312 27.7926 24.312C26.8646 24.312 26.0086 24.16 25.2246 23.856C24.4566 23.536 23.8006 23.096 23.2566 22.536C22.7126 21.976 22.2886 21.312 21.9846 20.544C21.6806 19.76 21.5286 18.904 21.5286 17.976C21.5286 17.016 21.6646 16.128 21.9366 15.312C22.2246 14.48 22.6406 13.768 23.1846 13.176C23.7286 12.568 24.3926 12.096 25.1766 11.76C25.9606 11.424 26.8566 11.256 27.8646 11.256C28.6006 11.256 29.3046 11.352 29.9766 11.544C30.6646 11.736 31.2726 12.032 31.8006 12.432C32.3446 12.816 32.7846 13.304 33.1206 13.896C33.4566 14.472 33.6486 15.16 33.6966 15.96H30.3606ZM34.0138 6.864H37.4218V13.32H37.4938C37.9258 12.6 38.4778 12.08 39.1498 11.76C39.8218 11.424 40.4778 11.256 41.1178 11.256C42.0298 11.256 42.7738 11.384 43.3498 11.64C43.9418 11.88 44.4058 12.224 44.7418 12.672C45.0778 13.104 45.3098 13.64 45.4378 14.28C45.5818 14.904 45.6538 15.6 45.6538 16.368V24H42.2458V16.992C42.2458 15.968 42.0858 15.208 41.7658 14.712C41.4458 14.2 40.8778 13.944 40.0618 13.944C39.1338 13.944 38.4618 14.224 38.0458 14.784C37.6298 15.328 37.4218 16.232 37.4218 17.496V24H34.0138V6.864ZM49.5844 17.808C49.5844 18.304 49.6324 18.792 49.7284 19.272C49.8244 19.736 49.9844 20.16 50.2084 20.544C50.4484 20.912 50.7604 21.208 51.1444 21.432C51.5284 21.656 52.0084 21.768 52.5844 21.768C53.1604 21.768 53.6404 21.656 54.0244 21.432C54.4244 21.208 54.7364 20.912 54.9604 20.544C55.2004 20.16 55.3684 19.736 55.4644 19.272C55.5604 18.792 55.6084 18.304 55.6084 17.808C55.6084 17.312 55.5604 16.824 55.4644 16.344C55.3684 15.864 55.2004 15.44 54.9604 15.072C54.7364 14.704 54.4244 14.408 54.0244 14.184C53.6404 13.944 53.1604 13.824 52.5844 13.824C52.0084 13.824 51.5284 13.944 51.1444 14.184C50.7604 14.408 50.4484 14.704 50.2084 15.072C49.9844 15.44 49.8244 15.864 49.7284 16.344C49.6324 16.824 49.5844 17.312 49.5844 17.808ZM46.1764 17.808C46.1764 16.816 46.3284 15.92 46.6324 15.12C46.9364 14.304 47.3684 13.616 47.9284 13.056C48.4884 12.48 49.1604 12.04 49.9444 11.736C50.7284 11.416 51.6084 11.256 52.5844 11.256C53.5604 11.256 54.4404 11.416 55.2244 11.736C56.0244 12.04 56.7044 12.48 57.2644 13.056C57.8244 13.616 58.2564 14.304 58.5604 15.12C58.8644 15.92 59.0164 16.816 59.0164 17.808C59.0164 18.8 58.8644 19.696 58.5604 20.496C58.2564 21.296 57.8244 21.984 57.2644 22.56C56.7044 23.12 56.0244 23.552 55.2244 23.856C54.4404 24.16 53.5604 24.312 52.5844 24.312C51.6084 24.312 50.7284 24.16 49.9444 23.856C49.1604 23.552 48.4884 23.12 47.9284 22.56C47.3684 21.984 46.9364 21.296 46.6324 20.496C46.3284 19.696 46.1764 18.8 46.1764 17.808ZM59.6482 6.864H63.0562V24H59.6482V6.864ZM63.9158 15.408C63.9638 14.608 64.1638 13.944 64.5158 13.416C64.8678 12.888 65.3158 12.464 65.8598 12.144C66.4038 11.824 67.0118 11.6 67.6838 11.472C68.3718 11.328 69.0598 11.256 69.7478 11.256C70.3718 11.256 71.0038 11.304 71.6438 11.4C72.2838 11.48 72.8678 11.648 73.3958 11.904C73.9238 12.16 74.3558 12.52 74.6918 12.984C75.0278 13.432 75.1958 14.032 75.1958 14.784V21.24C75.1958 21.8 75.2278 22.336 75.2918 22.848C75.3558 23.36 75.4678 23.744 75.6278 24H72.1718C72.1078 23.808 72.0518 23.616 72.0038 23.424C71.9718 23.216 71.9478 23.008 71.9318 22.8C71.3878 23.36 70.7478 23.752 70.0118 23.976C69.2758 24.2 68.5238 24.312 67.7558 24.312C67.1638 24.312 66.6118 24.24 66.0998 24.096C65.5878 23.952 65.1398 23.728 64.7558 23.424C64.3718 23.12 64.0678 22.736 63.8438 22.272C63.6358 21.808 63.5318 21.256 63.5318 20.616C63.5318 19.912 63.6518 19.336 63.8918 18.888C64.1478 18.424 64.4678 18.056 64.8518 17.784C65.2518 17.512 65.6998 17.312 66.1958 17.184C66.7078 17.04 67.2198 16.928 67.7318 16.848C68.2438 16.768 68.7478 16.704 69.2438 16.656C69.7398 16.608 70.1798 16.536 70.5638 16.44C70.9478 16.344 71.2518 16.208 71.4758 16.032C71.6998 15.84 71.8038 15.568 71.7878 15.216C71.7878 14.848 71.7238 14.56 71.5958 14.352C71.4838 14.128 71.3238 13.96 71.1158 13.848C70.9238 13.72 70.6918 13.64 70.4198 13.608C70.1638 13.56 69.8838 13.536 69.5798 13.536C68.9078 13.536 68.3798 13.68 67.9958 13.968C67.6118 14.256 67.3878 14.736 67.3238 15.408H63.9158ZM71.7878 17.928C71.6438 18.056 71.4598 18.16 71.2358 18.24C71.0278 18.304 70.7958 18.36 70.5398 18.408C70.2998 18.456 70.0438 18.496 69.7718 18.528C69.4998 18.56 69.2278 18.6 68.9558 18.648C68.6998 18.696 68.4438 18.76 68.1878 18.84C67.9478 18.92 67.7318 19.032 67.5398 19.176C67.3638 19.304 67.2198 19.472 67.1078 19.68C66.9958 19.888 66.9398 20.152 66.9398 20.472C66.9398 20.776 66.9958 21.032 67.1078 21.24C67.2198 21.448 67.3718 21.616 67.5638 21.744C67.7558 21.856 67.9798 21.936 68.2358 21.984C68.4918 22.032 68.7558 22.056 69.0278 22.056C69.6998 22.056 70.2198 21.944 70.5878 21.72C70.9558 21.496 71.2278 21.232 71.4038 20.928C71.5798 20.608 71.6838 20.288 71.7158 19.968C71.7638 19.648 71.7878 19.392 71.7878 19.2V17.928ZM78.801 19.968C78.801 20.336 78.873 20.656 79.017 20.928C79.177 21.184 79.377 21.4 79.617 21.576C79.857 21.736 80.129 21.856 80.433 21.936C80.753 22.016 81.081 22.056 81.417 22.056C81.657 22.056 81.905 22.032 82.161 21.984C82.433 21.92 82.673 21.832 82.881 21.72C83.105 21.592 83.289 21.432 83.433 21.24C83.577 21.032 83.649 20.776 83.649 20.472C83.649 19.96 83.305 19.576 82.617 19.32C81.945 19.064 81.001 18.808 79.785 18.552C79.289 18.44 78.801 18.312 78.321 18.168C77.857 18.008 77.441 17.808 77.073 17.568C76.705 17.312 76.409 17 76.185 16.632C75.961 16.248 75.849 15.784 75.849 15.24C75.849 14.44 76.001 13.784 76.305 13.272C76.625 12.76 77.041 12.36 77.553 12.072C78.065 11.768 78.641 11.56 79.281 11.448C79.921 11.32 80.577 11.256 81.249 11.256C81.921 11.256 82.569 11.32 83.193 11.448C83.833 11.576 84.401 11.792 84.897 12.096C85.393 12.4 85.801 12.808 86.121 13.32C86.457 13.816 86.657 14.448 86.721 15.216H83.481C83.433 14.56 83.185 14.12 82.737 13.896C82.289 13.656 81.761 13.536 81.153 13.536C80.961 13.536 80.753 13.552 80.529 13.584C80.305 13.6 80.097 13.648 79.905 13.728C79.729 13.808 79.577 13.928 79.449 14.088C79.321 14.232 79.257 14.432 79.257 14.688C79.257 14.992 79.369 15.24 79.593 15.432C79.817 15.624 80.105 15.784 80.457 15.912C80.825 16.024 81.241 16.128 81.705 16.224C82.169 16.32 82.641 16.424 83.121 16.536C83.617 16.648 84.097 16.784 84.561 16.944C85.041 17.104 85.465 17.32 85.833 17.592C86.201 17.848 86.497 18.176 86.721 18.576C86.945 18.96 87.057 19.44 87.057 20.016C87.057 20.832 86.889 21.52 86.553 22.08C86.233 22.624 85.809 23.064 85.281 23.4C84.753 23.736 84.145 23.968 83.457 24.096C82.785 24.24 82.097 24.312 81.393 24.312C80.673 24.312 79.969 24.24 79.281 24.096C78.593 23.952 77.977 23.712 77.433 23.376C76.905 23.04 76.465 22.6 76.113 22.056C75.777 21.496 75.593 20.8 75.561 19.968H78.801ZM105.115 22.056C104.443 22.92 103.699 23.528 102.883 23.88C102.067 24.216 101.243 24.384 100.411 24.384C99.0993 24.384 97.9153 24.16 96.8593 23.712C95.8193 23.248 94.9393 22.616 94.2193 21.816C93.4993 21.016 92.9473 20.08 92.5633 19.008C92.1793 17.92 91.9873 16.752 91.9873 15.504C91.9873 14.224 92.1793 13.04 92.5633 11.952C92.9473 10.848 93.4993 9.888 94.2193 9.072C94.9393 8.256 95.8193 7.616 96.8593 7.152C97.9153 6.688 99.0993 6.456 100.411 6.456C101.291 6.456 102.139 6.592 102.955 6.864C103.787 7.12 104.531 7.504 105.187 8.016C105.859 8.528 106.411 9.16 106.843 9.912C107.275 10.664 107.539 11.528 107.635 12.504H104.035C103.811 11.544 103.379 10.824 102.739 10.344C102.099 9.864 101.323 9.624 100.411 9.624C99.5633 9.624 98.8433 9.792 98.2513 10.128C97.6593 10.448 97.1793 10.888 96.8113 11.448C96.4433 11.992 96.1713 12.616 95.9953 13.32C95.8353 14.024 95.7553 14.752 95.7553 15.504C95.7553 16.224 95.8353 16.928 95.9953 17.616C96.1713 18.288 96.4433 18.896 96.8113 19.44C97.1793 19.984 97.6593 20.424 98.2513 20.76C98.8433 21.08 99.5633 21.24 100.411 21.24C101.659 21.24 102.619 20.928 103.291 20.304C103.979 19.664 104.379 18.744 104.491 17.544H100.699V14.736H107.899V24H105.499L105.115 22.056Z" fill="black"/>
<rect x="111" y="20" width="5" height="5" fill="black"/>
</svg>
